HIERARCHY
ROOT RootJoint
{
    OFFSET   0.000000   0.000000   0.000000
    CHANNELS 6 Xposition Yposition Zposition Xrotation Yrotation Zrotation
    JOINT pelvis_lowerback
    {
        OFFSET   0.000000   0.093605   0.000000
        CHANNELS 3 Xrotation Yrotation Zrotation
        JOINT lowerback_torso
        {
            OFFSET   0.000000   0.100000   0.000000
            CHANNELS 3 Xrotation Yrotation Zrotation
            JOINT torso_head
            {
                OFFSET   0.000000   0.282350   0.000000
                CHANNELS 3 Xrotation Yrotation Zrotation
                End Site
                {
                    OFFSET   0.000000   0.192650   0.000000
                }
            }
            JOINT rTorso_Clavicle
            {
                OFFSET  -0.001000   0.157500   0.000000
                CHANNELS 3 Xrotation Yrotation Zrotation
                JOINT rShoulder
                {
                    OFFSET  -0.117647   0.000000   0.000000
                    CHANNELS 3 Xrotation Yrotation Zrotation
                    JOINT rElbow
                    {
                        OFFSET  -0.245000   0.000000   0.000000
                        CHANNELS 3 Xrotation Yrotation Zrotation
                        JOINT rWrist
                        {
                            OFFSET  -0.240000   0.000000   0.000000
                            CHANNELS 3 Xrotation Yrotation Zrotation
                            End Site
                            {
                                OFFSET  -0.116353  -0.002500   0.000000
                            }
                        }
                    }
                }
            }
            JOINT lTorso_Clavicle
            {
                OFFSET   0.001000   0.157500   0.000000
                CHANNELS 3 Xrotation Yrotation Zrotation
                JOINT lShoulder
                {
                    OFFSET   0.117647   0.000000   0.000000
                    CHANNELS 3 Xrotation Yrotation Zrotation
                    JOINT lElbow
                    {
                        OFFSET   0.245000   0.000000   0.000000
                        CHANNELS 3 Xrotation Yrotation Zrotation
                        JOINT lWrist
                        {
                            OFFSET   0.240000   0.000000   0.000000
                            CHANNELS 3 Xrotation Yrotation Zrotation
                            End Site
                            {
                                OFFSET   0.116353  -0.002500   0.000000
                            }
                        }
                    }
                }
            }
        }
    }
    JOINT rHip
    {
        OFFSET  -0.100000  -0.051395   0.000000
        CHANNELS 3 Xrotation Yrotation Zrotation
        JOINT rKnee
        {
            OFFSET   0.000000  -0.410000   0.000000
            CHANNELS 3 Xrotation Yrotation Zrotation
            JOINT rAnkle
            {
                OFFSET   0.000000  -0.390000   0.000000
                CHANNELS 3 Xrotation Yrotation Zrotation
                JOINT rToeJoint
                {
                    OFFSET   0.000000  -0.050000   0.130000
                    CHANNELS 3 Xrotation Yrotation Zrotation
                    End Site
                    {
                        OFFSET  -0.010000   0.002000   0.060000
                    }
                }
            }
        }
    }
    JOINT lHip
    {
        OFFSET   0.100000  -0.051395   0.000000
        CHANNELS 3 Xrotation Yrotation Zrotation
        JOINT lKnee
        {
            OFFSET   0.000000  -0.410000   0.000000
            CHANNELS 3 Xrotation Yrotation Zrotation
            JOINT lAnkle
            {
                OFFSET   0.000000  -0.390000   0.000000
                CHANNELS 3 Xrotation Yrotation Zrotation
                JOINT lToeJoint
                {
                    OFFSET   0.000000  -0.050000   0.130000
                    CHANNELS 3 Xrotation Yrotation Zrotation
                    End Site
                    {
                        OFFSET   0.010000   0.002000   0.060000
                    }
                }
            }
        }
    }
}
MOTION
Frames: 14
Frame Time:   0.008333
 -2.631292   0.881881   4.030489   0.070638 -10.435621  11.171920  11.609054  -2.461478  -4.079022   4.086086  -2.325978  -4.663550   1.430668  -2.616674  -1.313995   1.421269   4.475626   5.837079  10.093711  10.013646  52.562593  -0.000930  14.799533   0.001214   4.010507   3.729294   3.239743  -0.400402  -4.399018  -5.496447  -1.147872 -14.324635 -29.683934   0.000720 -21.559582   0.001004   3.444846  -1.404674   2.131905 -22.143016   3.012938 -22.484332  43.730128  -0.002442  -0.003901 -15.673538  -3.377610   1.323719  -7.838759   0.000397  -0.001732  -2.658386   1.085757  -3.477674  20.550573   0.000186  -0.000046 -15.228417   3.965923  -0.928906  -3.483945   0.000306   0.001324
 -2.633144   0.882489   4.030557   0.019496 -10.082921  10.554443  11.549858  -2.536060  -3.812417   4.089917  -2.485501  -4.409306   1.565223  -2.585611  -1.270827   1.510892   4.111986   5.743157  10.278698   9.756739  52.247698  -0.000960  14.842508   0.001147   3.913428   3.862425   3.206321  -0.412245  -4.520958  -5.597514  -0.968550 -14.618164 -30.015951   0.002492 -21.876581   0.001552   3.493112  -1.117509   2.235428 -21.740159   2.566739 -21.794236  43.200312  -0.001835  -0.004935 -15.635329  -3.586101   1.403624  -7.689320   0.000015  -0.001212  -2.597849   1.019178  -2.707852  20.417971   0.000214  -0.000458 -15.362257   3.902017  -1.093695  -3.108445   0.000297   0.001942
 -2.635084   0.883345   4.030479   0.012003  -9.666693   9.892232  11.459204  -2.623848  -3.582239   4.078873  -2.682997  -4.122528   1.698956  -2.546628  -1.207210   1.628369   3.735820   5.612208  10.484335   9.486885  51.935431  -0.000916  14.868107   0.001024   3.819713   3.941981   3.143316  -0.450487  -4.690353  -5.671787  -0.828663 -14.950190 -30.338917   0.004011 -22.207576   0.001976   3.551862  -1.006482   2.258459 -21.318471   2.093133 -21.045297  42.547213  -0.001403  -0.006512 -15.518524  -3.767671   1.472488  -7.575500  -0.000217  -0.000748  -2.580818   0.966034  -1.883633  20.226038   0.000235  -0.001086 -15.420093   3.864068  -1.219489  -2.752313   0.000155   0.002679
 -2.637030   0.884274   4.030310   0.026009  -9.249319   9.242987  11.357405  -2.733614  -3.409985   4.054063  -2.905078  -3.869357   1.823546  -2.508318  -1.146158   1.755422   3.366762   5.460292  10.693548   9.218920  51.632610  -0.000836  14.883779   0.000888   3.733431   3.971524   3.070679  -0.507336  -4.877539  -5.717871  -0.715320 -15.285117 -30.628541   0.005155 -22.529573   0.002242   3.612129  -0.988472   2.281487 -20.908779   1.636297 -20.298604  41.865165  -0.001027  -0.007884 -15.359885  -3.929930   1.530565  -7.490246  -0.000338  -0.000417  -2.582378   0.923857  -1.072066  20.007531   0.000254  -0.001700 -15.430415   3.841901  -1.318980  -2.427789  -0.000016   0.003230
 -2.638940   0.885193   4.030088   0.048063  -8.858814   8.617986  11.252098  -2.859042  -3.293533   4.021336  -3.140998  -3.662174   1.939277  -2.472199  -1.092805   1.884565   3.009683   5.294324  10.900095   8.956749  51.337797  -0.000733  14.892583   0.000752   3.653138   3.965267   2.984701  -0.575314  -5.070997  -5.744254  -0.621345 -15.612698 -30.887643   0.005979 -22.837295   0.002378   3.672132  -1.017439   2.321736 -20.516970   1.204023 -19.569662  41.187296  -0.000649  -0.008796 -15.181829  -4.076885   1.580816  -7.417699  -0.000405  -0.000187  -2.589580   0.887980  -0.288197  19.784736   0.000280  -0.002161 -15.421094   3.828820  -1.402908  -2.127485  -0.000169   0.003551
 -2.640880   0.885718   4.029938   0.088539  -8.486229   8.055275  11.105044  -2.999326  -3.264967   3.970490  -3.388847  -3.508490   2.048780  -2.438884  -1.046783   2.024952   2.652303   5.111088  11.111090   8.695915  51.058173  -0.000603  14.894606   0.000612   3.578335   3.931120   2.903621  -0.646879  -5.255269  -5.739100  -0.539174 -15.924385 -31.114748   0.006446 -23.129187   0.002313   3.731716  -1.075037   2.367160 -20.070858   0.793668 -18.905342  40.422186  -0.000371  -0.009724 -14.805029  -4.208875   1.564147  -9.253690   0.001612  -0.003959  -2.604523   0.853417   0.417487  19.565053   0.000284  -0.002466 -15.418945   3.805165  -1.488307  -2.316024  -0.000068   0.002289
 -2.642715   0.886451   4.029628   0.120777  -8.172783   7.486583  11.004617  -3.137753  -3.240469   3.920160  -3.632234  -3.394690   2.142934  -2.407484  -1.010332   2.146376   2.327305   4.937125  11.302909   8.450636  50.776403  -0.000474  14.893439   0.000482   3.507084   3.871098   2.775136  -0.726430  -5.449913  -5.753410  -0.473471 -16.227385 -31.326241   0.006832 -23.403834   0.002277   3.788802  -1.142740   2.448856 -19.726693   0.429029 -18.225218  39.811861  -0.000028  -0.009645 -14.747073  -4.320934   1.632698  -8.695851   0.000110  -0.002263  -2.618526   0.833127   1.138994  19.367037   0.000322  -0.002572 -15.471885   3.818750  -1.563169  -1.858108  -0.000302   0.003142
 -2.644827   0.887995   4.029100   0.182497  -7.601468   6.359037  10.873837  -3.128364  -2.782072   3.979534  -3.915513  -2.965338   2.321992  -2.319477  -0.882074   2.310553   1.817075   4.665823  11.421751   7.902382  50.271874  -0.000635  14.918201   0.000557   3.424136   3.958988   2.805478  -0.648738  -5.877499  -5.680058  -0.243022 -17.093889 -31.680060   0.010395 -23.944139   0.005985   3.862021  -0.755225   2.502738 -19.169328  -0.150582 -16.950380  38.761618  -0.000090  -0.013674 -14.071126  -4.581726   1.919964  -8.804297   0.000525  -0.002097  -2.704595   0.865794   2.472319  19.090620   0.000272  -0.003699 -15.564601   3.828267  -1.717168  -1.429022  -0.000321   0.004972
 -2.646956   0.889789   4.028445   0.284250  -6.944490   5.203643  10.721063  -3.157606  -2.357022   4.031947  -4.248332  -2.504136   2.504945  -2.224680  -0.727945   2.491018   1.302990   4.315944  11.563459   7.352174  49.745901  -0.000600  14.926143   0.000499   3.342625   3.997835   2.763112  -0.614800  -6.363169  -5.579273  -0.070511 -17.986910 -32.023097   0.013219 -24.494200   0.008882   3.956794  -0.578370   2.421239 -18.596505  -0.734631 -15.644685  37.611615  -0.000308  -0.018111 -13.231447  -4.797692   2.168070  -9.143441   0.001651  -0.002921  -2.836656   0.914041   3.827920  18.735610   0.000139  -0.005358 -15.545061   3.873014  -1.815108  -1.038712  -0.000487   0.006672
 -2.649063   0.891578   4.027758   0.402502  -6.281274   4.091806  10.561421  -3.225718  -2.004407   4.067552  -4.610380  -2.091781   2.678181  -2.133783  -0.579183   2.674261   0.801703   3.927329  11.712672   6.815561  49.220371  -0.000445  14.923311   0.000378   3.268593   3.979000   2.666731  -0.613929  -6.859268  -5.452771   0.062392 -18.856095 -32.326550   0.015096 -25.026121   0.010759   4.054870  -0.527232   2.341665 -18.033183  -1.285190 -14.381729  36.453645  -0.000393  -0.021632 -12.351105  -4.990107   2.387636  -9.570482   0.002739  -0.003964  -2.986198   0.967782   5.130559  18.351612   0.000012  -0.006914 -15.470386   3.930847  -1.883970  -0.681048  -0.000658   0.007886
 -2.651132   0.893253   4.027089   0.523081  -5.653147   3.035318  10.401018  -3.318314  -1.726296   4.089419  -4.984041  -1.744235   2.839816  -2.048321  -0.443350   2.853913   0.318099   3.519919  11.862167   6.297448  48.702413  -0.000221  14.913077   0.000224   3.200417   3.916379   2.525159  -0.633780  -7.347742  -5.312369   0.167582 -19.687076 -32.594296   0.016197 -25.532446   0.011764   4.152660  -0.541064   2.292630 -17.487661  -1.797410 -13.174701  35.324372  -0.000244  -0.023814 -11.478647  -5.164290   2.586442 -10.024765   0.003597  -0.004782  -3.136497   1.020897   6.368524  17.968506  -0.000052  -0.008038 -15.382892   3.993245  -1.939253  -0.352990  -0.000786   0.008562
 -2.653151   0.894777   4.026457   0.638826  -5.079574   2.035386  10.242461  -3.424792  -1.518054   4.100548  -5.357825  -1.461426   2.989705  -1.968382  -0.321095   3.026478  -0.145058   3.106356  12.007695   5.800725  48.197337   0.000031  14.897933   0.000060   3.136731   3.823163   2.346468  -0.665275  -7.820108  -5.169375   0.252805 -20.474812 -32.834559   0.016711 -26.010751   0.012091   4.248511  -0.589830   2.269644 -16.963514  -2.272691 -12.025571  34.239260   0.000109  -0.024690 -10.634243  -5.321946   2.769163 -10.478111   0.004200  -0.005232  -3.278973   1.070815   7.541435  17.601259  -0.000050  -0.008657 -15.303094   4.056832  -1.988247  -0.052180  -0.000864   0.008770
 -2.655214   0.896399   4.025953   0.725125  -4.684423   1.168111  10.096234  -3.498895  -1.462441   4.106889  -5.695811  -1.275623   3.128491  -1.892519  -0.214721   3.183985  -0.578040   2.724061  12.139432   5.334957  47.724104   0.000243  14.882125  -0.000085   3.077034   3.716136   2.144624  -0.695361  -8.256175  -5.031990   0.331532 -21.204290 -33.046549   0.016822 -26.454159   0.011903   4.340914  -0.636398   2.273778 -16.455564  -2.693610 -10.990313  33.176023   0.001090  -0.023660  -9.773330  -5.472497   2.922187 -10.938923   0.004601  -0.004898  -3.411591   1.036539   8.653399  17.359342   0.000261  -0.007912 -15.132723   4.053082  -2.009361   0.225547  -0.001187   0.008019
 -2.657486   0.898044   4.025309   0.884875  -4.045137  -0.006363   9.860986  -3.563599  -1.111143   4.233737  -6.074546  -0.900866   3.212682  -1.778821  -0.042173   3.390356  -1.051927   2.362805  12.003105   4.586032  46.978927   0.003071  14.701157  -0.001926   3.032405   3.665899   2.099739  -0.515193  -8.861350  -4.723454   0.775714 -22.646883 -33.182656   0.018802 -26.925122   0.016325   4.448685  -0.377369   2.348320 -15.896840  -3.137577  -9.661729  32.026788   0.000813  -0.025863  -8.629893  -5.531258   3.277864 -11.774598   0.007184  -0.007643  -3.904290   0.959966  10.158716  17.517549  -0.000002  -0.005291 -15.093569   4.150832  -2.108328   0.317136  -0.001119   0.007046
